<svg xmlns="http://www.w3.org/2000/svg" version="1.1" xmlns:xlink="http://www.w3.org/1999/xlink" width="512" height="512" x="0" y="0" viewBox="0 0 1707 1707" style="enable-background:new 0 0 512 512" xml:space="preserve" fill-rule="evenodd"><g><path d="M1476 1707c-59 0-118-23-163-68l-460-459-459 459c-90 90-237 90-327 0s-90-236 0-326l460-460L67 394C-76 250 24 0 231 0c61 0 119 24 163 67l459 460 460-460c144-143 394-43 394 164 0 61-24 119-68 163l-459 459 459 460c145 145 42 394-163 394z" fill="#ffffff" opacity="1" data-original="#000000"></path></g></svg>