<svg id="Capa_1" data-name="Capa 1" xmlns="http://www.w3.org/2000/svg" viewBox="0 0 3033.59 935"><defs><style>.cls-1{fill:#0f172a;}</style></defs><g id="Layer_1"><path class="cls-1" d="M2330.64,346.52V307.61h249v47.28h-84.45V638.15h-48.59V354.89h-116v-8.37Zm312.83-45.11H2684V638.59h-48.8V301.41Zm235.21,4.89,155.11,332.29h-52.71l-50-105.33H2802.6l-49.78,105.33h-54.14Q2778.26,470,2857.92,301.41h18.59l2.17,4.89Zm-11.52,90.11-41.95,88.92H2909Zm-1940,190.66,32.18-32.18,36.74,41.41c14.56,16.53,28.58,21.31,40,21.31s21.08-4.78,26.19-7.39a63.17,63.17,0,0,0,13.26-9.46,50.21,50.21,0,0,0,9.57-11.85h0a56.6,56.6,0,0,0,6-13.8,57.58,57.58,0,0,0,1.84-14.46c0-11.19-3.91-22.39-11.74-33.48-5.76-8.15-14-17.28-24.78-27.28a480.34,480.34,0,0,0-40-33.15h-.11q-24.45-18.42-39.89-32.07c-10.65-9.24-18-16.84-22.39-22.71a114.88,114.88,0,0,1-16.63-30.76,103.65,103.65,0,0,1-5.65-33.59,104.88,104.88,0,0,1,3.37-26.31,95,95,0,0,1,10-24,92,92,0,0,1,16.08-20.43,100.89,100.89,0,0,1,21.53-15.55h0a102.13,102.13,0,0,1,25-9.67,114,114,0,0,1,55.87.44,109.26,109.26,0,0,1,26.74,11h0q13,7.33,26.41,20.55a261.48,261.48,0,0,1,27,31.74l4.89,6.52-44.89,34-5-6.52A257,257,0,0,0,1078.9,326c-5.76-5.87-10.87-10.11-15.43-12.83h-.11a54.45,54.45,0,0,0-14.13-6.19,57.79,57.79,0,0,0-15.33-2,55.87,55.87,0,0,0-18.69,3,42.48,42.48,0,0,0-14.35,8.92h.11a37.56,37.56,0,0,0-12.5,29.13,50,50,0,0,0,1.08,10.65A63.13,63.13,0,0,0,993,367.28,59.29,59.29,0,0,0,999.55,378a119.35,119.35,0,0,0,11.09,12.5c2.28,2.18,7.61,6.53,15.76,12.83s19.46,14.67,33.7,25.22h.11c17.06,12.61,31.63,24.56,43.37,35.87,12.06,11.52,21.41,22.28,28,32.5v.11a129.24,129.24,0,0,1,15,31.08,101.11,101.11,0,0,1,5.22,31.74,105.24,105.24,0,0,1-8.81,42.83,113,113,0,0,1-25.87,36.52,117.18,117.18,0,0,1-38.37,25.22,123,123,0,0,1-45.54,8.37A78.29,78.29,0,0,1,997.16,664,107.69,107.69,0,0,1,968.36,642l-46.85-49.13,5.65-5.76Zm421.09-240a117.88,117.88,0,0,0-31.63,4.13,130.3,130.3,0,0,0-56.2,32.71,122.49,122.49,0,0,0-19.67,25.87h0a122,122,0,0,0-12.28,30.44,138.09,138.09,0,0,0-4.13,34,127.3,127.3,0,0,0,9,48.37,120.49,120.49,0,0,0,27.28,40c12.18,12.06,25.55,21.19,40.11,27.17s30.33,8.92,47.5,8.92a127.34,127.34,0,0,0,33.15-4.13,121.92,121.92,0,0,0,30.33-12.4,120.5,120.5,0,0,0,57.61-75.76,136.79,136.79,0,0,0,4.13-33.8,134.24,134.24,0,0,0-4-33.48,121.24,121.24,0,0,0-12.29-29.89,113.23,113.23,0,0,0-19.56-25.33A124.57,124.57,0,0,0,1411.19,364a126.6,126.6,0,0,0-30.55-12.72,123.35,123.35,0,0,0-32.39-4.23Zm-1.41-47.29q37.17,0,68.58,12.5a170.44,170.44,0,0,1,56.63,37.5q25.11,24.95,37.72,55.76t12.72,67.18q0,36-12.61,66.85t-37.72,56h0q-25.11,25.11-55.87,37.83-30.81,12.55-66.84,12.61c-24.35,0-46.74-4.13-67.4-12.5a168.91,168.91,0,0,1-56.19-37.72q-25.27-25.11-37.83-55.43-12.72-30.5-12.71-66.09a175.92,175.92,0,0,1,23-87.94h0a169.89,169.89,0,0,1,104-80.76,168.08,168.08,0,0,1,44.46-5.76Zm213.37,7.83h185.11v47.28H1600v81.63h145.33V483.8H1600V638.15h-48V307.61Zm300.21,93.59-40.87,86.52h81.53Zm11.42-88.81,152,325.76h-52l-49-103.15H1797.27l-48.8,103.15h-53.26q77.93-165.33,156-330.54h18.47Zm436.3,68-31.3,24.14-5.11-6.64a132,132,0,0,0-21.2-22.06,124.89,124.89,0,0,0-24.89-16,131.09,131.09,0,0,0-28.26-9.67,152.22,152.22,0,0,0-31.19-3.15,139.49,139.49,0,0,0-34,4.13A132.49,132.49,0,0,0,2100.75,364a126.54,126.54,0,0,0-26.63,19.78,118.79,118.79,0,0,0-19.78,25.55A117.35,117.35,0,0,0,2042,439.57a137.45,137.45,0,0,0-4.13,34q0,54,36.84,89.89a121.81,121.81,0,0,0,41.63,27.06c15.55,6.09,32.83,9,51.85,9q62.12,0,103.91-48.59l5.11-6,37.72,28.7-5.22,6.63a169.39,169.39,0,0,1-27.82,27.93A173.51,173.51,0,0,1,2248,628.91a179.21,179.21,0,0,1-38.91,12.83,212,212,0,0,1-42.93,4.24q-86.25,0-136.31-57.72a168.74,168.74,0,0,1-31.41-53.69q-10.6-29.36-10.55-63.48c0-24,4.24-46.31,12.72-66.63a164.94,164.94,0,0,1,38.15-55.22,168.94,168.94,0,0,1,57.29-37.17q31.78-12.24,69.67-12.29,45.81,0,82.94,18.05v.1a164.79,164.79,0,0,1,33.91,21.85A161.92,161.92,0,0,1,2309.88,369l4.78,6.52-6.52,4.89Z" transform="translate(-0.21 0)"/><path class="cls-1" d="M71.18,278.48A129.77,129.77,0,0,0,71,461.41l.32.22h0L353.36,743.7,432,665.11l-1.53-1.52-234-232.83h0l-.11-.11a79.78,79.78,0,0,1,0-112.39h-.11c16.2-16.41,32.5-32.61,48.81-48.8A133.29,133.29,0,0,0,161.4,240c-30.54.11-61.74,11.2-87.5,35.65l-2.72,2.83ZM647.92,467.93,551.4,371.41l-45.32,45.33a79.86,79.86,0,0,1-56.42,23.15V440a79.51,79.51,0,0,1-56.3-23.26L269.23,292.61,220.75,341.2a46.3,46.3,0,0,0,0,65.54L479.23,665.33l-.55.43c27.72,33,39.9,71.41,38.92,109a159.14,159.14,0,0,1-1.74,18.92L653,656.63a127.16,127.16,0,0,0,37.72-91.85C690.32,531,676.4,496.41,647.92,467.93Zm-414,418.48-136-136a79.91,79.91,0,0,1,0-112.5l51.31-51.3L47.71,485.22v-.11l-.22-.33a163.23,163.23,0,0,1-.22-229.56h0L253.79,48.7a167.15,167.15,0,0,1,235.87,0l136,135.87a80,80,0,0,1,0,112.6l-50.76,50.66,96.63,96.63c34.78,34.78,51.85,77.71,52.39,120a159.92,159.92,0,0,1-47.39,115.76L466.4,890.33,466,890h0l.43.33L466,890a167.33,167.33,0,0,1-232.07-3.59ZM292.82,269l124,124.13a46.32,46.32,0,0,0,32.82,13.48v.11a46.44,46.44,0,0,0,32.83-13.59L602.05,273.59a46.45,46.45,0,0,0,0-65.44l-136-136a134.12,134.12,0,0,0-188.7,0L142,207.61c4.45-.54,9-.87,13.47-1.09A167.47,167.47,0,0,1,268.9,245c7.83,6.63,16.63,16.41,24,23.91l-.1.11ZM450.75,858.26a151.68,151.68,0,0,0,13.7-18.8C477.27,818.37,484.12,794.78,484,771c0-27.83-9.46-56-29.56-81l-101,101-.11-.22-.54.65L172.16,610.76l-50.65,50.65a46.18,46.18,0,0,0,0,65.44l136,136a133.83,133.83,0,0,0,188.69,0l4.57-4.57Z" transform="translate(-0.21 0)"/></g></svg>