<?xml version="1.0" encoding="UTF-8"?>
<!DOCTYPE svg PUBLIC "-//W3C//DTD SVG 1.1//EN" "http://www.w3.org/Graphics/SVG/1.1/DTD/svg11.dtd">
<!-- Creator: CorelDRAW -->
<svg xmlns="http://www.w3.org/2000/svg" xml:space="preserve" width="3034px" height="935px" version="1.1" style="shape-rendering:geometricPrecision; text-rendering:geometricPrecision; image-rendering:optimizeQuality; fill-rule:evenodd; clip-rule:evenodd"
viewBox="0 0 279.09 86.02"
 xmlns:xlink="http://www.w3.org/1999/xlink"
 xmlns:xodm="http://www.corel.com/coreldraw/odm/2003">
 <defs>
  <style type="text/css">
   <![CDATA[
    .fil0 {fill:#FEFEFE;fill-rule:nonzero}
   ]]>
  </style>
 </defs>
 <g id="Layer_x0020_1">
  <metadata id="CorelCorpID_0Corel-Layer"/>
  <path class="fil0" d="M214.4 31.88l0 -3.58 22.91 0 0 4.35 -7.77 0 0 26.06 -4.47 0 0 -26.06 -10.67 0 0 -0.77zm28.78 -4.15l3.73 0 0 31.02 -4.49 0 0 -31.02 0.76 0zm21.64 0.45l14.27 30.57 -4.85 0 -4.6 -9.69 -11.82 0 -4.58 9.69 -4.98 0c4.88,-10.34 9.76,-20.68 14.65,-31.02l1.71 0 0.2 0.45zm-1.06 8.29l-3.86 8.18 7.71 0 -3.85 -8.18zm-178.48 17.54l2.96 -2.96 3.38 3.81c1.34,1.52 2.63,1.96 3.68,1.96 1.06,0 1.94,-0.44 2.41,-0.68 0.46,-0.25 0.87,-0.54 1.22,-0.87 0.35,-0.32 0.64,-0.68 0.88,-1.09l0 0c0.25,-0.42 0.43,-0.84 0.55,-1.27 0.11,-0.42 0.17,-0.87 0.17,-1.33 0,-1.03 -0.36,-2.06 -1.08,-3.08 -0.53,-0.75 -1.29,-1.59 -2.28,-2.51 -1,-0.94 -2.23,-1.96 -3.68,-3.05l-0.01 0c-1.5,-1.13 -2.72,-2.11 -3.67,-2.95 -0.98,-0.85 -1.66,-1.55 -2.06,-2.09 -0.68,-0.9 -1.18,-1.85 -1.53,-2.83 -0.34,-1 -0.52,-2.03 -0.52,-3.09 0,-0.84 0.11,-1.64 0.31,-2.42 0.21,-0.78 0.51,-1.52 0.92,-2.21 0.41,-0.7 0.9,-1.33 1.48,-1.88 0.58,-0.55 1.24,-1.03 1.98,-1.43l0 0c0.74,-0.4 1.5,-0.7 2.3,-0.89 0.8,-0.2 1.63,-0.3 2.48,-0.3 0.91,0 1.8,0.11 2.66,0.34 0.85,0.22 1.67,0.56 2.46,1.01l0 0c0.8,0.45 1.61,1.08 2.43,1.89 0.81,0.8 1.64,1.77 2.48,2.92l0.45 0.6 -4.13 3.13 -0.46 -0.6c-0.66,-0.86 -1.26,-1.58 -1.82,-2.15 -0.53,-0.54 -1,-0.93 -1.42,-1.18l-0.01 0c-0.41,-0.26 -0.85,-0.44 -1.3,-0.57 -0.44,-0.12 -0.91,-0.18 -1.41,-0.18 -0.64,0 -1.21,0.1 -1.72,0.28 -0.5,0.19 -0.94,0.46 -1.32,0.82l0.01 0c-0.39,0.37 -0.68,0.77 -0.87,1.21 -0.19,0.44 -0.28,0.93 -0.28,1.47 0,0.33 0.03,0.66 0.1,0.98 0.08,0.33 0.18,0.65 0.32,0.97 0.14,0.31 0.34,0.64 0.6,0.99 0.27,0.36 0.61,0.74 1.02,1.15 0.21,0.2 0.7,0.6 1.45,1.18 0.75,0.58 1.79,1.35 3.1,2.32l0.01 0c1.57,1.16 2.91,2.26 3.99,3.3 1.11,1.06 1.97,2.05 2.58,2.99l0 0.01c0.61,0.95 1.08,1.9 1.38,2.86 0.32,0.97 0.48,1.95 0.48,2.92 0,1.4 -0.27,2.71 -0.81,3.94 -0.53,1.22 -1.32,2.34 -2.38,3.36 -1.06,1.03 -2.23,1.8 -3.53,2.32 -1.29,0.51 -2.69,0.77 -4.19,0.77 -1.22,0 -2.32,-0.3 -3.32,-0.81 -0.98,-0.5 -1.86,-1.2 -2.65,-2.03l-4.31 -4.52 0.52 -0.53zm38.74 -22.08c-1,0 -1.97,0.12 -2.91,0.38 -0.95,0.26 -1.87,0.65 -2.78,1.18 -0.9,0.52 -1.69,1.13 -2.39,1.83 -0.7,0.7 -1.3,1.49 -1.81,2.38l0 0c-0.5,0.88 -0.88,1.81 -1.13,2.8 -0.25,0.99 -0.38,2.03 -0.38,3.13 0,1.61 0.28,3.1 0.83,4.45 0.56,1.35 1.39,2.58 2.51,3.68 1.12,1.11 2.35,1.95 3.69,2.5 1.33,0.55 2.79,0.82 4.37,0.82 1.07,0 2.08,-0.12 3.05,-0.38 0.97,-0.25 1.9,-0.63 2.79,-1.14 0.9,-0.51 1.69,-1.11 2.39,-1.81 0.69,-0.69 1.29,-1.48 1.79,-2.36 0.5,-0.88 0.87,-1.81 1.12,-2.8 0.25,-0.98 0.38,-2.02 0.38,-3.11 0,-1.08 -0.12,-2.11 -0.37,-3.08 -0.25,-0.96 -0.63,-1.88 -1.13,-2.75 -0.49,-0.86 -1.09,-1.64 -1.8,-2.33 -0.7,-0.7 -1.52,-1.31 -2.43,-1.83 -0.9,-0.52 -1.84,-0.91 -2.81,-1.17 -0.96,-0.26 -1.95,-0.39 -2.98,-0.39zm-0.13 -4.35c2.28,0 4.38,0.38 6.31,1.15 1.92,0.77 3.66,1.92 5.21,3.45 1.54,1.53 2.7,3.24 3.47,5.13 0.78,1.89 1.17,3.95 1.17,6.18 0,2.21 -0.39,4.26 -1.16,6.15 -0.77,1.89 -1.93,3.61 -3.47,5.15l0 0c-1.54,1.54 -3.25,2.7 -5.14,3.48 -1.89,0.77 -3.94,1.16 -6.15,1.16 -2.24,0 -4.3,-0.38 -6.2,-1.15 -1.9,-0.77 -3.63,-1.93 -5.17,-3.47 -1.55,-1.54 -2.71,-3.24 -3.48,-5.1 -0.78,-1.87 -1.17,-3.9 -1.17,-6.08 0,-2.9 0.71,-5.59 2.12,-8.09l0 0c0.7,-1.24 1.53,-2.35 2.5,-3.33 0.96,-0.97 2.05,-1.81 3.27,-2.52 1.21,-0.7 2.48,-1.23 3.8,-1.58 1.32,-0.36 2.68,-0.53 4.09,-0.53zm19.63 0.72l17.03 0 0 4.35 -13.37 0 0 7.51 13.37 0 0 4.35 -13.37 0 0 14.2 -4.42 0 0 -30.41 0.76 0zm27.62 8.61l-3.76 7.96 7.5 0 -3.74 -7.96zm1.05 -8.17l13.98 29.97 -4.78 0 -4.51 -9.49 -11.55 0 -4.49 9.49 -4.9 0c4.78,-10.14 9.57,-20.27 14.35,-30.41l1.7 0 0.2 0.44zm40.14 6.26l-2.88 2.22 -0.47 -0.61c-0.59,-0.77 -1.24,-1.45 -1.95,-2.03 -0.7,-0.58 -1.47,-1.07 -2.29,-1.47 -0.82,-0.39 -1.69,-0.69 -2.6,-0.89 -0.91,-0.19 -1.87,-0.29 -2.87,-0.29 -1.09,0 -2.13,0.13 -3.13,0.38 -1,0.26 -1.96,0.66 -2.89,1.18 -0.93,0.52 -1.74,1.13 -2.45,1.82 -0.71,0.7 -1.32,1.48 -1.82,2.35 -0.51,0.88 -0.89,1.8 -1.14,2.78 -0.25,0.98 -0.38,2.03 -0.38,3.13 0,3.31 1.13,6.07 3.39,8.27 1.13,1.11 2.41,1.94 3.83,2.49 1.43,0.56 3.02,0.83 4.77,0.83 3.81,0 6.99,-1.49 9.56,-4.47l0.47 -0.55 3.47 2.64 -0.48 0.61c-0.76,0.96 -1.61,1.82 -2.56,2.57 -0.94,0.74 -1.98,1.37 -3.11,1.9 -1.13,0.52 -2.32,0.92 -3.58,1.18 -1.26,0.26 -2.58,0.39 -3.95,0.39 -5.29,0 -9.47,-1.77 -12.54,-5.31 -1.28,-1.49 -2.25,-3.14 -2.89,-4.94 -0.65,-1.8 -0.97,-3.75 -0.97,-5.84 0,-2.21 0.39,-4.26 1.17,-6.13 0.78,-1.87 1.95,-3.57 3.51,-5.08 1.56,-1.52 3.31,-2.66 5.27,-3.42 1.95,-0.75 4.09,-1.13 6.41,-1.13 2.81,0 5.35,0.55 7.63,1.66l0 0.01c1.15,0.56 2.19,1.23 3.12,2.01 0.94,0.79 1.78,1.68 2.51,2.69l0.44 0.6 -0.6 0.45z"/>
  <path class="fil0" d="M6.53 25.62c-2.32,2.31 -3.47,5.36 -3.48,8.4 0,3.06 1.16,6.11 3.46,8.43l0.03 0.02 0 0 25.95 25.95 7.23 -7.23 -0.14 -0.14 -21.53 -21.42 0 0 -0.01 -0.01c-1.42,-1.42 -2.13,-3.3 -2.13,-5.17 0,-1.88 0.71,-3.75 2.13,-5.17l-0.01 0c1.49,-1.51 2.99,-3 4.49,-4.49 -2.18,-1.75 -4.91,-2.72 -7.69,-2.71 -2.81,0.01 -5.68,1.03 -8.05,3.28l-0.25 0.26zm53.06 17.43l-8.88 -8.88 -4.17 4.17c-1.43,1.42 -3.31,2.13 -5.19,2.13l0 0.01c-1.88,0 -3.76,-0.72 -5.18,-2.14l-11.42 -11.42 -4.46 4.47c-0.83,0.83 -1.25,1.92 -1.25,3.02 0,1.09 0.42,2.18 1.25,3.01l23.78 23.79 -0.05 0.04c2.55,3.04 3.67,6.57 3.58,10.03 -0.02,0.58 -0.07,1.16 -0.16,1.74l12.62 -12.61c2.32,-2.32 3.51,-5.36 3.47,-8.45 -0.04,-3.11 -1.32,-6.29 -3.94,-8.91zm-38.09 38.5l-12.51 -12.51c-1.42,-1.42 -2.13,-3.3 -2.13,-5.18 0,-1.88 0.71,-3.75 2.13,-5.17l4.72 -4.72 -9.34 -9.33 0 -0.01 -0.02 -0.03c-2.9,-2.91 -4.35,-6.74 -4.35,-10.58 0,-3.82 1.45,-7.64 4.33,-10.54l0 0 19 -19c2.99,-2.99 6.92,-4.48 10.85,-4.48 3.93,0 7.86,1.49 10.85,4.48l12.51 12.5c1.42,1.43 2.13,3.31 2.13,5.18 0,1.88 -0.71,3.75 -2.13,5.18l-4.67 4.66 8.89 8.89c3.2,3.2 4.77,7.15 4.82,11.04 0.05,3.91 -1.44,7.73 -4.36,10.65l-19.33 19.33 -0.04 -0.03 0 0 0.04 0.03 -0.04 -0.03c-2.94,2.76 -6.72,4.14 -10.5,4.14 -3.93,0 -7.87,-1.49 -10.85,-4.47zm5.42 -56.8l11.41 11.42c0.83,0.83 1.93,1.24 3.02,1.24l0 0.01c1.09,0 2.19,-0.42 3.02,-1.25l11 -11c0.82,-0.83 1.24,-1.92 1.24,-3.01 0,-1.09 -0.42,-2.18 -1.24,-3.01l-12.51 -12.51c-2.38,-2.38 -5.53,-3.57 -8.68,-3.57 -3.15,0 -6.29,1.19 -8.68,3.57l-12.46 12.46c0.41,-0.05 0.83,-0.08 1.24,-0.1 3.77,-0.16 7.53,1.12 10.44,3.54 0.72,0.61 1.53,1.51 2.21,2.2l-0.01 0.01zm14.53 54.21c0.47,-0.55 0.89,-1.13 1.26,-1.73 1.18,-1.94 1.81,-4.11 1.8,-6.3 0,-2.56 -0.87,-5.15 -2.72,-7.45l-9.29 9.29 -0.01 -0.02 -0.05 0.06 -16.62 -16.62 -4.66 4.66c-0.83,0.83 -1.25,1.93 -1.25,3.01 0,1.09 0.42,2.18 1.25,3.01l12.51 12.51c2.38,2.39 5.53,3.58 8.68,3.58 3.14,0 6.29,-1.19 8.68,-3.58l0.42 -0.42z"/>
 </g>
</svg>
